<?xml version="1.0" encoding="utf-8"?>
<!-- Generator: Adobe Illustrator 28.1.0, SVG Export Plug-In . SVG Version: 6.00 Build 0)  -->
<svg version="1.0" id="katman_1" xmlns="http://www.w3.org/2000/svg" xmlns:xlink="http://www.w3.org/1999/xlink" x="0px" y="0px"
	 viewBox="0 0 715.71 775.36" style="enable-background:new 0 0 715.71 775.36;" xml:space="preserve">
<style type="text/css">
	.st0{fill:#101614;}
	.st1{fill:#626868;}
	.st2{fill:#1F2422;}
</style>
<path class="st0" d="M637.1,1.59c-0.12-0.35-0.09-0.7,0.08-1.03c0.39-0.75,0.77-0.75,1.16,0c1.05,2.08,2.12,4.15,3.2,6.22
	c23.41,44.65,47.52,89.86,72.34,135.64c0.49,0.91,0.75,1.92,0.74,2.95c-0.09,23.81-0.08,46.31,0.02,67.51
	c0.01,0.83,0.04,1.64,0.11,2.42c0.09,1.07-0.21,1.2-0.92,0.39c-0.95-1.07-1.91-2.12-2.9-3.15c-21.25-22.23-43.23-45.08-65.92-68.55
	c-1.27-1.31-2.49-2.79-3.65-4.44c-0.78-1.11-1.19-2.39-1.23-3.86c-1.26-45.49-2.23-89.93-2.9-133.34
	C637.23,2.08,637.19,1.83,637.1,1.59z"/>
<path class="st0" d="M1.26,216.14l0.1-71.79c0-0.58,0.14-1.14,0.42-1.65L78.19,0.5c0.22-0.41,0.85-0.23,0.82,0.24
	c-0.09,1.47-0.16,2.89-0.19,4.25c-1.08,43.22-2.07,87.37-2.97,132.44c-0.02,0.86-0.35,1.69-0.94,2.31
	c-16.03,16.99-32.6,34.3-49.73,51.93c-6.05,6.23-12.52,13.04-19.39,20.41c-1.37,1.47-2.57,2.92-3.61,4.35
	C1.89,216.83,1.26,216.63,1.26,216.14z"/>
<path class="st0" d="M74.76,184.48c0.03,0.63,0.35,0.94,0.98,0.93c18.89-0.15,37.7-0.37,56.41-0.05c0.29,0.01,0.51,0.26,0.47,0.55
	l-14.68,104.22c-0.08,0.54-0.33,0.64-0.75,0.29c-1.19-0.98-2.54-1.75-3.95-2.45c-35.77-17.55-71.83-35.21-108.16-53
	c-0.81-0.39-0.91-0.92-0.3-1.59c0.53-0.59,1.06-1.13,1.59-1.62c23.85-22.17,46.45-44.04,67.8-65.61c0.71-0.72,1.02-0.58,0.94,0.43
	C74.64,172.67,74.53,178.63,74.76,184.48z"/>
<path class="st0" d="M640.8,184.65l-0.2-18.06c-0.01-0.99,0.34-1.14,1.03-0.43c22.79,23.16,46.15,45.64,70.1,67.45
	c0.23,0.21,0.18,0.59-0.1,0.73l-112.94,55.92c-0.29,0.14-0.46,0.05-0.5-0.27l-14.49-104.1c-0.06-0.42,0.27-0.81,0.7-0.8l55.69,0.27
	C640.48,185.37,640.81,185.04,640.8,184.65z M637.24,187.37c-3.02,1.22-7.22,1.1-10.5,0.57c-1.87-0.3-3.36-0.16-4.03,1.7
	c-1.64,4.48-2.4,9.49-3.67,13.31c-1.84,5.52-3.69,10.65-5.54,15.4c-1.09,2.79-2.18,5.85-3.29,9.19c-0.17,0.53-0.16,1.03,0.03,1.48
	c0.19,0.46,0.77,0.6,1.15,0.28c2.66-2.24,5.36-4.28,7.85-6.71c3.71-3.63,7.25-7.12,10.63-10.48c3.75-3.73,6.23-10.38,8.3-15.31
	c1-2.39,1.56-4.82,1.67-7.31c0.03-0.64-0.13-1.19-0.5-1.64C638.8,187.18,638.1,187.02,637.24,187.37z"/>
<path class="st1" d="M203.87,185.42c-3.58,5.3-7.4,10.31-11.46,15.02c-6.42,7.45-9.65,11.21-9.7,11.26
	c-8.65,10.54-17.34,21.05-26.06,31.53c-1.67,2-3.95,3.95-5.75,6.15l0.13-63.4c0-0.31,0.25-0.56,0.56-0.56H203.87z"/>
<path class="st0" d="M309.33,185.38c0.18,0.55,0.02,1.04-0.48,1.49c-0.62,0.55-0.64,1.13-0.05,1.72c3.7,3.73,6.03,8.29,9.43,12.43
	c5.9,7.19,11.35,14.1,16.36,20.72c7.04,9.31,15.19,18.88,22.37,28.87c0.46,0.64,1.34,0.78,1.97,0.32c0.73-0.54,1.31-1.11,1.76-1.72
	c3.8-5.19,7.57-10.47,11.32-15.84c2.66-3.81,12.12-15.54,28.38-35.17c1.87-2.25,3.76-4.58,5.68-6.98c1.23-1.53,1.48-3.37,0.97-5.24
	c-0.05-0.17,0.22-0.38,0.79-0.63l55.54-0.06c0.32,0,0.5,0.36,0.3,0.59L358.8,307.32c-0.16,0.19-0.46,0.19-0.63,0L252.89,186.19
	c-0.33-0.38-0.06-0.96,0.44-0.96L309.33,185.38z"/>
<path class="st2" d="M407.83,185.35c-0.57,0.25-0.84,0.46-0.79,0.63c0.51,1.87,0.26,3.71-0.97,5.24c-1.92,2.4-3.81,4.73-5.68,6.98
	c-16.26,19.63-25.72,31.36-28.38,35.17c-3.75,5.37-7.52,10.65-11.32,15.84c-0.45,0.61-1.03,1.18-1.76,1.72
	c-0.63,0.46-1.51,0.32-1.97-0.32c-7.18-9.99-15.33-19.56-22.37-28.87c-5.01-6.62-10.46-13.53-16.36-20.72
	c-3.4-4.14-5.73-8.7-9.43-12.43c-0.59-0.59-0.57-1.17,0.05-1.72c0.5-0.45,0.66-0.94,0.48-1.49L407.83,185.35z"/>
<path class="st0" d="M511.63,185.44c0.57,0.06,1.07,0.2,1.48,0.42c0.3,0.16,0.37,0.39,0.22,0.7c-0.13,0.27-0.09,0.51,0.1,0.74
	c4.03,4.79,7.63,9.75,11.73,14.64c11.38,13.55,22.56,26.96,33.55,40.21c0.47,0.56,1.52,1.6,3.15,3.12c0.97,0.9,1.96,2.01,2.99,3.32
	l31.49,42.45c0.21,0.29,0.03,0.7-0.33,0.73c-0.53,0.05-1.09,0.22-1.67,0.49c-40.03,18.95-77.19,36.62-111.48,52.99
	c-14.58,6.96-29.05,13.54-43.86,20.87c-0.31,0.15-0.49,0.39-0.54,0.73c-0.25,1.51-0.38,3.04-0.37,4.57
	c0.1,37.59,0.11,76.71,0.04,117.34c-0.03,19.01,0.39,35.85,1.27,50.52c0.09,1.37-0.3,1.52-1.16,0.44l-6.33-7.91
	c-14.14-33.71-28.98-67.13-44.52-100.26l24.57-28.78c0.43-0.5,0.43-1.23,0-1.72c-8.87-10.32-17.58-20.71-26.62-30.77
	c-8.3-9.24-16.83-18.72-25.59-28.45c-0.5-0.56-0.5-1.4,0-1.95c5.69-6.22,11.12-12.42,16.27-18.59c0.82-0.99,1.87-1.75,3.14-2.29
	c3.12-1.33,6.24-2.73,9.19-4.3c28.67-15.16,57.69-30.35,87.07-45.58c-2.61,7.21-5.33,14.11-8.16,20.7
	c-7.57,17.64-14.86,35.08-21.86,52.32c-0.12,0.3-0.06,0.35,0.19,0.15c1.62-1.28,3.21-2.73,4.77-4.35
	c18.76-19.49,40.01-41,63.76-64.55c0.57-0.56,0.55-1.49-0.05-2.03l-15.53-13.92l-6.87-71.78c-0.02-0.21,0.07-0.31,0.27-0.3
	L511.63,185.44z"/>
<path class="st0" d="M203.87,185.42l20.76-0.03c0.2,0,0.35,0.17,0.33,0.37c-2.33,22.33-4.46,44.71-6.39,67.13
	c-0.12,1.34-0.11,2.69,0.02,4.04c-1.85,1.89-3.13,3.09-3.85,3.61c-4.36,3.16-8.2,6.65-11.53,10.47c-0.55,0.63-0.56,1.58-0.02,2.22
	c1.33,1.59,2.69,3.07,4.08,4.45c11.69,11.53,23.24,23.2,34.65,34.99c9.69,10.02,19.91,19.39,29.42,29.09
	c0.69,0.71,0.83,0.61,0.44-0.29c-4.36-9.99-8.74-20.27-13.14-30.82c-5.29-12.69-11.57-26.15-16.93-38.89
	c-0.29-0.7-0.77-1.24-1.18-1.87c-0.2-0.31-0.05-0.72,0.3-0.82c0.16-0.05,0.36-0.06,0.61-0.05c28.96,15.01,57.86,30.13,86.71,45.37
	c1.85,0.98,3.72,1.9,5.59,2.76c2.18,1.01,4.74,1.78,6.36,3.67c5.6,6.52,11.21,12.84,16.84,18.97c0.41,0.44,0.42,1.13,0.02,1.58
	c-10.98,12.65-21.7,24.28-32.39,36.58c-5.76,6.63-11.36,13.08-16.79,19.34c-1.09,1.26-2.22,2.66-3.39,4.21
	c-0.2,0.27-0.2,0.55-0.01,0.82c1.63,2.33,2.73,3.82,3.31,4.48c7.27,8.39,14.37,16.48,21.32,24.28c-2.4,5.15-4.69,10.17-6.87,15.04
	c-8.12,18.17-16.24,36.35-24.37,54.52c-1.42,3.18-3.71,8.6-6.87,16.25c-2.19,5.31-4.56,10.69-7.09,16.14l-5.98,6.62
	c-0.77,0.85-1.05,0.71-0.83-0.41c0.43-2.17,0.67-4.57,0.72-7.22c0.13-6.2,0.21-12.49,0.24-18.88c0.23-48.17,0.28-96.72,0.14-145.63
	c-0.01-0.61-0.28-1.04-0.82-1.3c-9.36-4.49-18.59-9.17-28.21-13.73c-15.27-7.24-33.18-15.78-53.71-25.61
	c-20.47-9.8-45.46-21.5-74.97-35.09c-0.31-0.14-0.38-0.36-0.22-0.66c0.9-1.76,1.94-3.43,3.13-5.01c9.2-12.27,18.4-24.52,27.6-36.73
	c1.8-2.2,4.08-4.15,5.75-6.15c8.72-10.48,17.41-20.99,26.06-31.53c0.05-0.05,3.28-3.81,9.7-11.26
	C196.47,195.73,200.29,190.72,203.87,185.42z"/>
<path class="st1" d="M511.63,185.44l52.58,0.16c0.36,0,0.66,0.3,0.66,0.66l-0.02,62.33c-1.03-1.31-2.02-2.42-2.99-3.32
	c-1.63-1.52-2.68-2.56-3.15-3.12c-10.99-13.25-22.17-26.66-33.55-40.21c-4.1-4.89-7.7-9.85-11.73-14.64
	c-0.19-0.23-0.23-0.47-0.1-0.74c0.15-0.31,0.08-0.54-0.22-0.7C512.7,185.64,512.2,185.5,511.63,185.44z"/>
<path class="st2" d="M637.24,187.37c0.86-0.35,1.56-0.19,2.1,0.48c0.37,0.45,0.53,1,0.5,1.64c-0.11,2.49-0.67,4.92-1.67,7.31
	c-2.07,4.93-4.55,11.58-8.3,15.31c-3.38,3.36-6.92,6.85-10.63,10.48c-2.49,2.43-5.19,4.47-7.85,6.71c-0.38,0.32-0.96,0.18-1.15-0.28
	c-0.19-0.45-0.2-0.95-0.03-1.48c1.11-3.34,2.2-6.4,3.29-9.19c1.85-4.75,3.7-9.88,5.54-15.4c1.27-3.82,2.03-8.83,3.67-13.31
	c0.67-1.86,2.16-2,4.03-1.7C630.02,188.47,634.22,188.59,637.24,187.37z"/>
<path class="st1" d="M399.68,285.06c0.92-0.92,1.81-1.86,2.67-2.83c25.36-28.49,49.15-55.65,71.37-81.48
	c0.28-0.33,0.64-0.48,1.07-0.45c0.18,0.01,0.32,0.16,0.32,0.34l0.51,44.72c0.01,0.64-0.33,1.22-0.87,1.54
	c-1.31,0.77-2.67,1.53-4.08,2.3c-13.7,7.43-27.28,14.81-40.74,22.14c-8.27,4.51-16.55,8.68-24.62,13.27c-3.09,1.76-6.21,3.43-9.37,5
	c-1.03,0.51-1.13,0.36-0.32-0.46L399.68,285.06z"/>
<path class="st1" d="M297.61,276.84c-16.88-9.23-34.96-18.68-52.53-27.89c-2.3-1.2-4.39-2.09-4.33-5.06
	c0.3-13.67,0.64-27.87,1.01-42.62c0-0.09,0.03-0.18,0.08-0.26c0.31-0.45,0.65-0.47,1.02-0.06l78.13,88.85
	c0.15,0.16,0.13,0.18-0.05,0.07C313.58,284.9,305.39,281.1,297.61,276.84z"/>
<path class="st1" d="M218.59,256.93l22.85,12.09c-0.25-0.01-0.45,0-0.61,0.05c-0.35,0.1-0.5,0.51-0.3,0.82
	c0.41,0.63,0.89,1.17,1.18,1.87c5.36,12.74,11.64,26.2,16.93,38.89c4.4,10.55,8.78,20.83,13.14,30.82c0.39,0.9,0.25,1-0.44,0.29
	c-9.51-9.7-19.73-19.07-29.42-29.09c-11.41-11.79-22.96-23.46-34.65-34.99c-1.39-1.38-2.75-2.86-4.08-4.45
	c-0.54-0.64-0.53-1.59,0.02-2.22c3.33-3.82,7.17-7.31,11.53-10.47C215.46,260.02,216.74,258.82,218.59,256.93z"/>
<path class="st1" d="M498.54,257.44l15.53,13.92c0.6,0.54,0.62,1.47,0.05,2.03c-23.75,23.55-45,45.06-63.76,64.55
	c-1.56,1.62-3.15,3.07-4.77,4.35c-0.25,0.2-0.31,0.15-0.19-0.15c7-17.24,14.29-34.68,21.86-52.32c2.83-6.59,5.55-13.49,8.16-20.7
	L498.54,257.44z"/>
<path class="st0" d="M161.06,337.36l-99.29,61.89c-0.19,0.12-0.45,0.07-0.59-0.11L0.1,320.6c-0.23-0.3-0.02-0.73,0.35-0.73
	l125.4,0.04c0.07,0,0.13,0.01,0.19,0.04l34.98,16.62C161.34,336.72,161.36,337.17,161.06,337.36z"/>
<path class="st0" d="M556.04,336.32c10.32-4.9,20.71-10.06,30.87-14.87c2.29-1.09,4.35-1.59,6.86-1.59
	c41.48,0.03,81.92,0.04,121.32,0.01c0.52,0,0.81,0.6,0.49,1.01l-60.68,78.06c-0.2,0.25-0.55,0.32-0.82,0.15
	c-23.43-14.69-52.56-32.78-87.41-54.27c-3.12-1.92-6.7-4.23-10.74-6.94C555.05,337.29,555.09,336.77,556.04,336.32z"/>
<path class="st0" d="M186.14,344.63c5.68,9.47,11.64,18.43,17.89,26.9c0.68,0.92,1.29,1.46,1.82,1.63
	c18.52,5.84,37.1,11.23,55.74,16.17l0.02,14.9c-5.79,4.89-11.19,10.28-16.18,16.15l-69.45-29.65c-0.31-0.13-0.62-0.11-0.91,0.07
	c-1.85,1.15-3.73,2.45-5.64,3.88c-7.91,5.92-14.48,10.6-19.71,14.03c-0.95,0.62-2.04,0.93-3.27,0.94
	c-22.8,0.13-46.25,0.26-70.36,0.39c-0.73,0-0.79-0.19-0.16-0.56c35.95-21.45,71.89-43.35,107.81-65.71
	c0.29-0.18,0.58-0.18,0.88-0.01L186.14,344.63z"/>
<path class="st0" d="M471.18,419.96l-0.42-0.18c-0.28-0.12-0.53-0.29-0.73-0.51l-13.97-14.92c-0.17-0.18-0.26-0.39-0.27-0.63
	c-0.3-4.3-0.39-8.53-0.26-12.69c0.03-0.89,0.63-1.66,1.48-1.91l53.6-15.98c1.02-0.3,1.9-0.95,2.49-1.83
	c3.29-4.89,6.97-9.67,10.12-14.7c1.45-2.31,2.97-4.58,4.54-6.8c1.29-1.83,2.11-3.71,3.18-5.69c0.39-0.73,0.98-0.84,1.79-0.33
	c32.41,20.53,62.3,38.69,93.69,57.59c4.78,2.88,9.68,5.53,14.25,8.46c0.57,0.37,0.52,0.53-0.16,0.48c-1.09-0.06-2.16-0.42-3.3-0.43
	c-23.25-0.07-46.26-0.13-69.01-0.17c-0.31-0.01-0.59-0.1-0.84-0.28l-25.91-18.65c-0.31-0.23-0.65-0.27-1.01-0.12L471.18,419.96z"/>
<path class="st1" d="M530.94,344.12c-1.07,1.98-1.89,3.86-3.18,5.69c-1.57,2.22-3.09,4.49-4.54,6.8c-3.15,5.03-6.83,9.81-10.12,14.7
	c-0.59,0.88-1.47,1.53-2.49,1.83l-53.6,15.98c-0.85,0.25-1.45,1.02-1.48,1.91c-0.13,4.16-0.04,8.39,0.26,12.69
	c0.01,0.24,0.1,0.45,0.27,0.63l13.97,14.92c0.2,0.22,0.45,0.39,0.73,0.51l0.42,0.18c-0.29,1.27-0.4,2.63-0.33,4.06
	c0.13,2.39,0.19,3.64,0.19,3.74c-0.08,24.55,0.02,49.07,0.3,73.58l-16.46,21.33l-0.23-143.68c0-0.43,0.2-0.74,0.59-0.91
	L530.94,344.12z"/>
<path class="st1" d="M186.14,344.63l74.8,33.53c0.43,0.19,0.7,0.62,0.7,1.09l-0.05,10.08c-18.64-4.94-37.22-10.33-55.74-16.17
	c-0.53-0.17-1.14-0.71-1.82-1.63C197.78,363.06,191.82,354.1,186.14,344.63z"/>
<path class="st1" d="M391.3,397.68l-25.37,28.81c-0.23,0.26-0.34,0.22-0.34-0.13l-0.15-57.43c0-0.51,0.17-0.57,0.52-0.2l25.33,27.82
	C391.58,396.87,391.59,397.36,391.3,397.68z"/>
<path class="st1" d="M350.26,425.99L325,397.49c-0.11-0.12-0.11-0.3,0-0.42l25.36-28.41c0.19-0.22,0.56-0.08,0.56,0.22l-0.1,56.89
	C350.82,426.07,350.45,426.21,350.26,425.99z"/>
<path class="st1" d="M261.61,404.23l-0.41,117.82l-15.79-20.4l0.02-81.27C250.42,414.51,255.82,409.12,261.61,404.23z"/>
<path class="st0" d="M178.91,414.34c2.04,3.37,3.36,5.47,3.97,6.3c14.23,19.63,28.54,38.79,42.94,57.46
	c-9.97,21.15-20.47,41.89-31.52,62.22c-0.97,1.78-1.42,3.7-2.51,5.44c-0.75,1.23-1.42,2.54-2.01,3.93
	c-1.93,4.63-4.29,9.11-7.08,13.46c-0.23,0.35-0.5,0.63-0.83,0.85c-0.19,0.13-0.31,0.3-0.36,0.52c-0.13,0.7-0.5,1.17-1.11,1.41
	c-0.29,0.12-0.46,0.33-0.53,0.62c-0.17,0.72-0.2,1.46-0.09,2.21c0.03,0.25-0.05,0.45-0.26,0.6c-0.6,0.42-0.73,0.98-0.4,1.67
	c0.13,0.27,0.3,0.3,0.51,0.08c0.15-0.17,0.32-0.17,0.49-0.01c0.24,0.23,0.53,0.35,0.86,0.36c1.37,0.06,2.69-0.1,3.97-0.47
	c5.18-1.51,10.12-3.65,15.4-5.19c9.54-2.78,18.84-5.76,27.9-8.94c4.77-1.68,9.44-3.23,14-4.66c8.46-2.65,17.09-5.05,25.16-8.54
	c1.46-0.63,2.97-0.61,4.49-0.96c0.33-0.07,0.62-0.22,0.88-0.44l1.75-1.52c0.39,0.71,0.59,1.26,0.58,1.65
	c-0.35,41.91-0.43,70.41-0.23,85.5c0.01,1.25,0.64,2.44,1.87,3.57c6.16,5.67,12.3,11.46,18.43,17.39c1.93,1.87,3.42,1.63,5.92,1.65
	c36.53,0.21,75.22,0.2,116.07-0.01c1.19-0.01,2.33-0.47,3.19-1.29c6.75-6.41,13.4-12.65,19.95-18.73c1.23-1.14,1.01-2.35,1.02-3.89
	c0.18-27.19,0.23-56.32-0.56-85.19c1.53,0.3,4.23,1.13,8.09,2.48c22.01,7.72,44.03,14.95,66.05,21.68
	c3.66,1.12,7.28,2.36,10.85,3.71c1.65,0.63,3.22,1.27,4.71,1.94c1.76,0.79,3.52,1.31,5.27,1.57c0.79,0.12,1.5-0.49,1.49-1.29
	c-0.01-1.58-1.19-2.59-1.8-3.94c-2.7-5.97-5.86-11.77-9.49-17.42c-1.75-2.73-4.43-7.92-8.03-15.59c-2.41-5.13-4.96-10.36-7.66-15.69
	c-3.17-6.25-6.46-12.76-9.87-19.52c-1.87-3.71-3.96-7.68-6.29-11.93c-0.76-1.39-1.42-2.96-1.97-4.7c-0.49-1.56-1.04-3.17-1.67-4.84
	c1.56-1.67,2.84-3.17,3.83-4.48c11.01-14.51,22.02-29.01,33.05-43.5c3.35-4.39,6.83-9.71,10.45-15.98c0.17-0.16,0.53-0.22,1.1-0.19
	c0.31,0.01,0.47,0.18,0.47,0.49l-0.06,159.25c0,0.46-0.17,0.91-0.48,1.25c-34.7,38.64-74.61,82.7-119.72,132.17
	c-19.73,21.64-39.94,44.42-60.64,68.33c-0.19,0.22-0.52,0.22-0.71,0.01c-9.56-10.74-19.82-22.75-29.66-33.67
	c-19.3-21.44-38.3-42.53-56.99-63.26c-4.47-4.96-8.96-9.88-13.46-14.77c-28.15-30.59-53.97-58.9-77.46-84.91
	c-0.88-0.97-1.7-1.98-2.45-3.05c-0.69-0.96-1.03-1.98-1.02-3.07c0.18-52.01,0.19-104.82,0.03-158.41c0-0.31,0.15-0.49,0.44-0.55
	C177.65,413.42,178.23,413.69,178.91,414.34z"/>
<path class="st1" d="M537.78,413.89c-3.62,6.27-7.1,11.59-10.45,15.98c-11.03,14.49-22.04,28.99-33.05,43.5
	c-0.99,1.31-2.27,2.81-3.83,4.48c-1.49,1.99-3.05,3.49-4.69,4.5l-0.33-44.48c-0.01-0.43,0.24-0.81,0.63-0.99L537.78,413.89z"/>
<path class="st1" d="M178.91,414.34c4.58,1.89,9.24,3.54,13.7,5.61c11.75,5.47,24.02,11.03,36.79,16.68
	c0.7,0.31,1.16,1.01,1.15,1.78l-0.3,43.81c-1.03-1.48-2.51-2.85-4.43-4.12c-14.4-18.67-28.71-37.83-42.94-57.46
	C182.27,419.81,180.95,417.71,178.91,414.34z"/>
<path class="st1" d="M329.01,431.08c11.6,13.04,19.35,21.67,23.26,25.88c2.23,2.41,3.96,4.65,5.18,6.71
	c0.18,0.31,0.14,0.58-0.12,0.83l-73.52,68.53c2.53-5.45,4.9-10.83,7.09-16.14c3.16-7.65,5.45-13.07,6.87-16.25
	c8.13-18.17,16.25-36.35,24.37-54.52C324.32,441.25,326.61,436.23,329.01,431.08z"/>
<path class="st1" d="M387.39,431.55c15.54,33.13,30.38,66.55,44.52,100.26c-1.24-0.22-2.28-0.75-3.13-1.6
	c-4.36-4.36-8.43-8.29-12.2-11.8c-17.07-15.85-34.5-32.05-52.29-48.6c-1.77-1.65-3.56-3.48-5.39-5.51c-0.45-0.49-0.45-0.99,0-1.48
	L387.39,431.55z"/>
<path class="st2" d="M490.45,477.85c0.63,1.67,1.18,3.28,1.67,4.84c0.55,1.74,1.21,3.31,1.97,4.7c2.33,4.25,4.42,8.22,6.29,11.93
	c3.41,6.76,6.7,13.27,9.87,19.52c2.7,5.33,5.25,10.56,7.66,15.69c3.6,7.67,6.28,12.86,8.03,15.59c3.63,5.65,6.79,11.45,9.49,17.42
	c0.61,1.35,1.79,2.36,1.8,3.94c0.01,0.8-0.7,1.41-1.49,1.29c-1.75-0.26-3.51-0.78-5.27-1.57c-1.49-0.67-3.06-1.31-4.71-1.94
	c-3.57-1.35-7.19-2.59-10.85-3.71c-22.02-6.73-44.04-13.96-66.05-21.68c-3.86-1.35-6.56-2.18-8.09-2.48l14.11-18.72l16.46-21.33
	c4.71-5.47,9.18-11.14,13.43-17.01c0.56-0.77,0.89-1.43,0.99-1.98C487.4,481.34,488.96,479.84,490.45,477.85z"/>
<path class="st2" d="M225.82,478.1c1.92,1.27,3.4,2.64,4.43,4.12c4.23,6.24,8.95,12.45,14.14,18.64c0.29,0.35,0.63,0.62,1.02,0.79
	l15.79,20.4l13.33,18.69l-1.75,1.52c-0.26,0.22-0.55,0.37-0.88,0.44c-1.52,0.35-3.03,0.33-4.49,0.96
	c-8.07,3.49-16.7,5.89-25.16,8.54c-4.56,1.43-9.23,2.98-14,4.66c-9.06,3.18-18.36,6.16-27.9,8.94c-5.28,1.54-10.22,3.68-15.4,5.19
	c-1.28,0.37-2.6,0.53-3.97,0.47c-0.33-0.01-0.62-0.13-0.86-0.36c-0.17-0.16-0.34-0.16-0.49,0.01c-0.21,0.22-0.38,0.19-0.51-0.08
	c-0.33-0.69-0.2-1.25,0.4-1.67c0.21-0.15,0.29-0.35,0.26-0.6c-0.11-0.75-0.08-1.49,0.09-2.21c0.07-0.29,0.24-0.5,0.53-0.62
	c0.61-0.24,0.98-0.71,1.11-1.41c0.05-0.22,0.17-0.39,0.36-0.52c0.33-0.22,0.6-0.5,0.83-0.85c2.79-4.35,5.15-8.83,7.08-13.46
	c0.59-1.39,1.26-2.7,2.01-3.93c1.09-1.74,1.54-3.66,2.51-5.44C205.35,519.99,215.85,499.25,225.82,478.1z"/>
<path class="st0" d="M424.26,555.99c-1.86,0.81-3.45,1.97-4.77,3.47c-2.19,2.49-3.31,3.75-3.35,3.79
	c-3.89,3.77-7.51,7.73-10.86,11.88l-11.09,11.48c-0.35,0.36-0.35,0.93-0.01,1.3c9.21,9.89,18.14,19.34,26.8,28.36
	c1.45,1.51,2.72,3.29,4.05,4.92c0.23,0.28,0.03,0.7-0.33,0.7c-44.97,0-88.02,0.03-129.15,0.09c-1.09,0-2.18-0.05-3.28-0.15
	c-0.44-0.04-0.67-0.55-0.41-0.91c1.81-2.56,3.59-4.79,5.34-6.69c7.09-7.69,15.16-16.29,24.2-25.82c0.73-0.77,0.73-1.54-0.02-2.3
	l-11.81-12.06l-17.01-18.56c3.43-3.54,8.23-8.21,14.38-14.02c0.94-0.89,1.94-1.65,2.99-2.3c0.95-0.58,1.95-0.87,3-0.87
	c31.19,0.06,61.9,0.08,92.15,0.05c0.35,0,0.67,0.09,0.97,0.28c1.27,0.8,2.59,1.84,3.95,3.12
	C415.55,546.98,420.3,551.72,424.26,555.99z"/>
<path class="st1" d="M292.56,555.49l17.01,18.56c0.17,1.39-0.24,2.65-1.25,3.79c-5.3,5.98-10.48,11.92-15.55,17.83
	c-0.37,0.42-0.55,0.35-0.54-0.2L292.56,555.49z"/>
<path class="st1" d="M424.26,555.99l0.17,39.48c0,0.64-0.21,0.72-0.64,0.24l-18.51-20.58c3.35-4.15,6.97-8.11,10.86-11.88
	c0.04-0.04,1.16-1.3,3.35-3.79C420.81,557.96,422.4,556.8,424.26,555.99z"/>
</svg>
